<?xml version="1.0" encoding="UTF-8"?>
<svg width="20px" height="17px" viewBox="0 0 20 17" version="1.1" xmlns="http://www.w3.org/2000/svg" xmlns:xlink="http://www.w3.org/1999/xlink">
    <!-- Generator: Sketch 52.5 (67469) - http://www.bohemiancoding.com/sketch -->
    <title>back</title>
    <desc>Created with Sketch.</desc>
    <g id="Screenflow-Kunde" stroke="none" stroke-width="1" fill="none" fill-rule="evenodd">
        <g id="03_register" transform="translate(-15.000000, -44.000000)" fill="#192FA7">
            <g id="nagivation_oben" transform="translate(0.000000, -5.000000)">
                <g id="_header">
                    <g id="back" transform="translate(15.000000, 49.000000)">
                        <path d="M2.55810174,7.72989625 L8.77895711,1.31964412 C9.07149733,1.0176578 9.07149733,0.528089547 8.77895711,0.226103234 C8.48591681,-0.0753677446 8.01085149,-0.0753677446 7.7178112,0.226103234 C7.7178112,0.226103234 2.01002638,6.10865232 0.21978022,7.95355164 C-0.0732600733,8.25502262 -0.0732600733,8.74459088 0.21978022,9.04657719 L7.7178112,16.7735103 C8.01085149,17.0754966 8.48591681,17.0754966 8.77895711,16.7735103 C9.07149733,16.471524 9.07149733,15.982471 8.77895711,15.6804847 L2.56410256,9.27590127 L19.2498969,9.27590127 C19.4489242,9.27590127 19.6394504,9.19447834 19.7804698,9.0496692 C19.9209891,8.90434473 20,8.70800209 20,8.50289876 C20,8.29779543 19.9209891,8.10145279 19.7804698,7.95612832 C19.6394504,7.81131918 19.4489242,7.72989625 19.2498969,7.72989625 L2.55810174,7.72989625 Z" id="Fill-1"></path>
                    </g>
                </g>
            </g>
        </g>
    </g>
</svg>