<?xml version="1.0" encoding="UTF-8"?>
<svg width="29px" height="31px" viewBox="0 0 29 31" version="1.1" xmlns="http://www.w3.org/2000/svg" xmlns:xlink="http://www.w3.org/1999/xlink">
    <!-- Generator: Sketch 52.5 (67469) - http://www.bohemiancoding.com/sketch -->
    <title>logout</title>
    <desc>Created with Sketch.</desc>
    <g id="Screenflow-Kunde" stroke="none" stroke-width="1" fill="none" fill-rule="evenodd">
        <g id="00_menu" transform="translate(-49.000000, -591.000000)" fill="#192FA7" stroke="#192FA7" stroke-width="0.5">
            <g id="ver1">
                <g id="icons" transform="translate(51.000000, 226.000000)">
                    <g id="logout" transform="translate(4.000000, 369.000000)">
                        <path d="M7.78717762,-1.000025 L18.1250336,-1.000025 C18.395627,-1.000025 18.6419265,-0.75372558 18.6419265,-0.483132199 L18.6419265,20.1925799 C18.6419265,20.4631732 18.395627,20.7094727 18.1250336,20.7094727 L7.78717762,20.7094727 C7.51658424,20.7094727 7.27028482,20.4631732 7.27028482,20.1925799 L7.27028482,16.5854434 C7.26640813,16.3122656 7.51399978,16.0613141 7.78717762,16.0613141 C8.06035547,16.0613141 8.30794712,16.3122656 8.30407042,16.5854434 L8.30407042,19.6756871 L17.6081408,19.6756871 L17.6081408,0.0337606027 L8.30407042,0.0337606027 L8.30407042,3.12426266 C8.30794712,3.39718206 8.06035547,3.64839196 7.78717762,3.64839196 C7.51399978,3.64839196 7.26640813,3.39718206 7.27028482,3.12426266 L7.27028482,-0.483132199 C7.27028482,-0.765872561 7.54527179,-0.999766554 7.78717762,-1.000025" id="Fill-1"></path>
                        <path d="M-1,9.85472383 C-1,9.73506314 -0.927635008,9.57637705 -0.85423623,9.49936003 L3.28064773,5.10551277 C3.47396564,4.90599215 3.78668579,4.88273197 4.0117926,5.08535395 C4.2128639,5.26652488 4.21803283,5.61956266 4.03195142,5.81649882 L0.712465851,9.33783103 L14.506784,9.33783103 C14.7921089,9.33783103 15.0236768,9.56914056 15.0236768,9.85472383 C15.0236768,10.1400487 14.7921089,10.3716166 14.506784,10.3716166 L0.712465851,10.3716166 L4.03195142,13.8929488 C4.21777438,14.0896265 4.20485206,14.4341356 4.0117926,14.6238353 C3.80787839,14.8243897 3.47086429,14.8062984 3.28064773,14.6036764 L-0.85423623,10.2100876 C-0.975706038,10.0909438 -0.997932429,9.97619364 -1,9.85472383" id="Fill-3"></path>
                    </g>
                </g>
            </g>
        </g>
    </g>
</svg>