<?xml version="1.0" encoding="UTF-8"?>
<svg width="163px" height="61px" viewBox="0 0 163 61" version="1.1" xmlns="http://www.w3.org/2000/svg" xmlns:xlink="http://www.w3.org/1999/xlink">
    <!-- Generator: Sketch 52.5 (67469) - http://www.bohemiancoding.com/sketch -->
    <title>trout</title>
    <desc>Created with Sketch.</desc>
    <g id="Screenflow-Kunde" stroke="none" stroke-width="1" fill="none" fill-rule="evenodd">
        <g id="04_home" transform="translate(-109.000000, -147.000000)">
            <g id="product" transform="translate(13.000000, 142.000000)">
                <g id="trout" transform="translate(177.500000, 35.000000) rotate(-3.000000) translate(-177.500000, -35.000000) translate(96.000000, 5.000000)">
                    <path d="M162.365639,30.3636491 C162.789018,31.1023053 160.850391,27.1194516 162.365639,30.3636491" id="Fill-1" fill="#A0FFD0"></path>
                    <path d="M156.669388,34.2006584 C156.849954,34.6397621 157.335678,34.8611136 157.787094,34.7189448 C158.890355,34.3590237 160.120013,34.0764857 160.340304,34.1106782 C160.638238,34.2726426 160.549761,34.458002 160.502814,34.5623791 C160.259049,35.0032824 158.177118,36.4825579 154.459254,37.9060457 C150.593326,39.3907201 142.131982,40.954577 140.021161,41.1039443 C138.607325,41.2047222 137.374056,41.7518022 136.182318,42.2790865 C135.243372,42.6965949 134.356791,43.0889089 133.370898,43.2904647 C132.487928,43.4704252 131.594124,43.6647826 130.814077,43.8393443 C131.910115,42.3024814 132.991708,40.6612414 133.100048,40.0151831 C133.15783,39.6642601 133.125328,39.1135808 132.630576,38.492717 C131.982342,37.6774958 130.734628,37.0116419 129.728873,36.9432569 C128.103774,36.8460782 122.00424,39.5220912 120.565125,40.2149393 C118.210538,41.3522898 118.358603,44.0283028 118.45972,45.800914 C118.465137,45.9070908 118.465137,45.9916722 118.468748,46.0942497 C116.780452,46.2904067 115.079516,46.5045597 113.342467,46.7331096 C105.922991,47.7138944 98.2543338,48.7036774 90.0530054,47.7318905 C90.0367544,47.4745469 89.9717505,47.2603939 89.8977182,47.1218243 C89.3885208,46.1482379 88.0162158,46.0078686 87.0249059,45.9844738 C84.6215664,45.9142892 78.8308002,46.4487719 78.0326965,46.5225558 C76.3245378,46.3317976 73.5203407,45.9142892 70.5482169,45.4733859 L66.720208,44.9101094 C65.2828991,44.7013552 63.7462785,44.6329702 62.3360545,44.6329702 C59.878545,44.6329702 57.8236988,44.8417244 57.343392,44.893913 C49.2937394,44.0301025 44.3389959,41.2569107 41.6720294,39.7632383 C41.146581,39.4681031 40.6969705,39.2161583 40.3159753,39.0271998 C40.30153,39.0182018 40.2834733,39.0200014 40.269028,39.0128029 C40.258194,39.0092037 40.2545827,38.9984061 40.2437487,38.9948069 C35.742227,37.2257949 27.9598128,36.6247267 22.2972487,38.9498168 C20.6938186,39.2197576 19.7566787,38.7518602 19.4406874,38.2605679 C18.5071588,36.8046873 18.1749165,34.4849961 18.0087954,32.0771242 C21.3005219,32.1689041 32.2320151,32.4712378 37.7158183,32.5918113 C37.9397207,32.5972101 38.1744571,32.5990097 38.4254445,32.5990097 C42.874602,32.5990097 51.1337116,31.8215803 59.1328056,31.0675457 C63.8022541,30.628442 68.6306011,30.1731418 72.6445934,29.8780066 C77.5415557,29.5162859 83.3539899,29.1797597 88.9768293,28.8558308 C96.0983703,28.4437212 102.828082,28.0532068 105.888684,27.7040834 C110.769395,27.1444062 124.113256,27.4089481 130.436693,27.6500952 C129.407464,29.3453234 129.082445,30.8857855 129.402047,32.4172496 C130.136953,35.9408767 133.564104,39.2521504 136.438722,40.8358031 C136.577758,40.9113865 136.727628,40.9491782 136.875693,40.9491782 C137.19349,40.9491782 137.502258,40.7800153 137.666574,40.4848801 C137.906727,40.0493756 137.747829,39.5022956 137.312664,39.2611485 C134.772094,37.8610556 131.754828,34.8575144 131.169793,32.0519297 C130.920611,30.8623907 131.043396,29.0771822 134.203309,25.8054998 C134.548191,25.4473784 134.537357,24.8769035 134.17803,24.5331789 C133.822314,24.1912539 133.249918,24.2002519 132.901425,24.5583734 C132.455426,25.0190723 132.065403,25.4653744 131.70427,25.9008789 C126.648409,25.6777279 111.294843,25.2746163 105.684643,25.9152758 C102.670989,26.2608 95.9683625,26.6477151 88.8702951,27.0580251 C83.2438444,27.3837537 77.4223818,27.7202798 72.5127799,28.0838001 C68.4789253,28.380735 63.64155,28.8360351 58.9648788,29.2769384 C50.566733,30.0669651 41.8598185,30.8857855 37.755543,30.792206 C32.2157641,30.6698329 21.1055101,30.3621004 17.9510141,30.2739197 C18.0232407,27.4431406 19.2149793,25.3555985 19.8523789,24.7455323 C20.3814386,24.236244 21.3546918,23.9753013 24.8594867,25.467174 C24.8612924,25.467174 24.8630981,25.467174 24.8630981,25.467174 C24.868515,25.4689736 24.873932,25.4725729 24.879349,25.4743725 C27.3278302,26.4497585 33.3768064,26.2356055 36.9935525,26.1078335 L37.7645713,26.0808394 C38.008336,26.0718414 38.244878,26.0358493 38.4832258,26.0106548 C38.5012824,26.0124544 38.5157277,26.0196529 38.5337844,26.0196529 C38.568092,26.0196529 38.600594,25.9998572 38.6349016,25.996258 C40.1751335,25.8198967 41.6395274,25.3609973 43.0605854,24.8966992 C44.4635868,24.4360002 45.7907502,24.0022953 47.0565211,23.9087159 C48.3168749,23.8151364 56.1390138,22.6237977 66.0448895,21.1175281 C79.1792934,19.1181666 95.5259746,16.6293125 99.3214815,16.312582 L99.3268985,16.312582 C99.3287042,16.312582 99.3287042,16.312582 99.3305098,16.312582 C105.40296,15.8086925 120.348445,17.115206 138.802337,21.1769151 C156.812035,25.1414455 159.948475,29.6602543 160.510036,31.0099583 C160.57504,31.1377303 160.602125,31.243907 160.584068,31.2942959 C160.454061,31.6398201 159.347188,32.0969199 158.541862,32.4298468 C158.068778,32.6242042 157.581248,32.82576 157.111776,33.0543099 C156.685639,33.2612645 156.492433,33.7615548 156.669388,34.2006584 M127.932236,44.7175517 C127.91418,44.7409465 127.910568,44.7697402 127.894317,44.7949347 C127.881678,44.81653 127.858204,44.8309268 127.845564,44.8543217 C127.163023,46.2148233 122.340093,52.2129076 120.872088,53.0245296 C120.523595,52.7599876 119.886195,51.7846016 119.738131,51.0503626 C119.736325,51.039565 119.736325,51.0233686 119.734519,51.0143705 C120.682493,50.1235659 123.797265,47.1092271 127.48082,42.5508269 C127.7932,42.1639118 127.731808,41.5970361 127.34359,41.2857044 C126.958983,40.9743727 126.386587,41.0337597 126.074208,41.4224744 C123.670868,44.3972219 121.502265,46.7043159 120.046899,48.1799922 C120.122737,47.7894779 120.202186,47.4133604 120.278024,47.0894314 C120.283441,47.0624373 120.272607,47.0372429 120.276219,47.0120484 C120.283441,46.9760563 120.299692,46.9436634 120.299692,46.9040721 C120.306915,46.5459506 120.287053,46.1374402 120.261773,45.7001361 C120.155239,43.7961538 120.17149,42.4050589 121.350589,41.8363836 C123.903799,40.603654 128.750202,38.7392629 129.597059,38.7392629 L129.609699,38.7392629 C130.33377,38.7878523 131.251048,39.4914979 131.326886,39.6876549 C131.169793,40.2221377 129.441772,42.714591 127.932236,44.7175517 M88.0234384,52.8013786 C87.9060702,52.9597438 87.6893905,53.209889 87.4709051,53.209889 C87.2795046,53.1972917 86.9689303,52.9903371 86.6439107,52.5764279 C87.7020301,51.3598947 88.6463927,50.2387407 89.2874036,49.4703092 C89.5763099,49.5081009 89.8579936,49.5242974 90.1468999,49.5566903 C89.5420023,50.5500724 88.677089,51.9339688 88.0234384,52.8013786 M77.1100019,53.7929611 C77.5415557,51.8781811 78.2349309,49.6340733 78.6899584,48.2717721 C79.525981,48.1997879 81.1492735,48.0630179 82.8068735,47.953242 C80.7393876,50.2081474 78.5906468,52.4216618 77.1100019,53.7929611 M78.8019096,57.9770433 C78.3342424,58.1462062 77.6932315,58.3027719 77.3284873,58.0724224 C77.02333,57.878065 76.8156785,57.3453819 76.743452,56.569752 C76.7398406,56.5337599 76.748869,56.4779721 76.7470633,56.4401804 C78.949974,54.8997183 84.0455594,49.2849499 85.3727229,47.8110731 C85.9956771,47.7876783 86.5572388,47.775081 86.9851813,47.7840791 C87.6731395,47.8002755 88.0306611,47.884857 88.2021992,47.9478431 C88.1967822,47.9586408 88.1877539,47.9694384 88.1805312,47.980236 C84.424749,52.5098425 79.7805797,57.6117235 78.8019096,57.9770433 M38.9274192,54.3670352 C38.6962942,53.9999157 38.4904484,53.5914053 38.3008536,53.1630992 C43.5065846,51.2753133 48.1200575,48.8134533 52.0202929,45.8117117 C52.9899348,46.0366623 54.0263862,46.2310197 55.1133963,46.398383 C46.3866195,53.0551229 40.1119352,54.536198 38.9274192,54.3670352 M37.1289774,49.211166 C40.0685992,48.1547977 44.3588582,46.3785873 47.6523904,44.5321923 C48.3132636,44.7697402 49.0120558,44.9982901 49.7559896,45.2160423 C46.2530003,47.7264917 42.2119231,49.8320299 37.6815107,51.4732699 C37.4612196,50.7444297 37.2770418,49.9831967 37.1289774,49.211166 M36.6107516,45.2664313 C38.7089338,44.6581647 40.2545827,43.9239257 42.2678987,42.937742 L43.0569741,42.5544261 C43.7666002,42.9161468 44.564704,43.2922643 45.4494796,43.671981 C42.6055579,45.1386593 39.2993861,46.5027601 36.8364597,47.4007631 C36.7371481,46.662925 36.6667272,45.9448825 36.6107516,45.2664313 M36.4554645,41.620431 L39.7959439,40.7890134 C40.0920729,40.9437794 40.4134812,41.1219403 40.7872537,41.3306945 C40.8811483,41.3846827 41.0003222,41.4494685 41.0996337,41.5052563 C39.434811,42.3168782 38.1202872,42.9233452 36.4969948,43.4254351 C36.4662985,42.6803985 36.4554645,42.0541359 36.4554645,41.620431 M1.92935257,43.9167273 C2.0503321,43.4884213 2.20200792,42.988131 2.3663234,42.4572474 C7.46552009,42.4554478 13.0341896,40.8843924 17.9437915,39.2575493 C18.2345035,39.6984526 18.6552233,40.0403776 19.1517811,40.2995207 C14.3685757,42.390662 9.67023651,44.2766484 1.92935257,43.9167273 M3.07594956,40.2257369 C3.20956874,39.8154269 3.33957659,39.4051169 3.4713901,38.9966065 C8.41529965,38.4135344 12.8464005,37.7422816 16.9687326,36.9558541 C17.0319309,37.175406 17.0806838,37.4111542 17.1565217,37.6217081 C12.627915,39.1135808 7.56122031,40.5190726 2.94594172,40.6324477 C2.99108333,40.4956777 3.03261362,40.3625069 3.07594956,40.2257369 M16.3999483,28.0352108 L16.1760459,27.9938198 C12.6261094,27.3351643 10.399725,26.9266539 4.47172826,26.492949 C4.39047336,26.2572008 4.30560712,26.0124544 4.22976921,25.800101 C4.04017444,25.2746163 3.8686363,24.8067189 3.76751909,24.414405 C3.71696048,24.2218472 3.67723586,23.9555056 3.64292823,23.6513723 C6.49768389,23.9771009 10.9053111,25.3196064 14.5346968,26.4281633 C15.271408,26.6549135 15.9683945,26.8654673 16.6419073,27.0670231 C16.5480128,27.3765552 16.4703692,27.6986846 16.3999483,28.0352108 M12.0356571,34.7783317 C13.6499212,34.7189448 15.1919587,34.663157 16.4775919,34.6289645 C16.5046768,34.817923 16.5263448,35.01408 16.5570411,35.201239 C12.7254209,35.9318787 8.60850575,36.559941 4.06364807,37.1088206 C4.28935614,36.3763812 4.50423023,35.6619379 4.69021367,34.9906852 C6.66741636,34.9762883 9.37591319,34.87731 12.0356571,34.7783317 M16.2085479,32.0591282 C16.2266045,32.3182713 16.2446611,32.5756149 16.2663291,32.8329584 C15.0077809,32.8689505 13.5199133,32.9247383 11.9688475,32.9805261 C9.52217202,33.0723059 7.04299459,33.1622862 5.13982415,33.1874807 C5.269832,32.5900117 5.35650389,32.0627274 5.39622851,31.6146257 C7.47815974,31.7531953 12.5105468,32.0609278 15.9792285,32.0609278 C16.0604834,32.0609278 16.1290986,32.0591282 16.2085479,32.0591282 M16.1471553,30.2613225 C12.6694453,30.2667213 7.28495364,29.9355939 5.32400193,29.8060224 C5.25538668,29.3021329 5.15788079,28.8108406 5.03870693,28.3393441 C10.3256927,28.7442552 12.3895673,29.1203727 15.8456093,29.7628318 L16.1489609,29.8186196 C16.1399326,29.962588 16.1507666,30.1137549 16.1471553,30.2613225 M3.51472605,21.8355706 C3.49666941,21.441457 3.48041842,21.0419447 3.46597311,20.6532299 C3.45694479,20.4372773 3.44972213,20.2303227 3.4406938,20.0215685 C9.98081081,21.5278381 13.8539613,23.2662568 17.5122377,24.961485 C17.4345941,25.1000546 17.3569505,25.2278265 17.2829183,25.380793 C16.5787091,25.1684396 15.8419979,24.9452885 15.0637565,24.7077406 C11.0389302,23.4786102 6.53921418,22.1127098 3.51472605,21.8355706 M3.23665371,17.4211389 C3.17164979,17.0720154 3.22220839,16.8038742 3.38832953,16.6203145 C3.59598096,16.389965 3.99503282,16.2711911 4.45367162,16.312582 C10.2823568,16.7768802 16.1381269,20.124146 20.1701759,22.6471926 C19.5833349,22.7659665 19.0542752,23.0125124 18.5992477,23.4480169 C18.5920251,23.4552153 18.5848024,23.4642134 18.5793854,23.4714118 L18.5649401,23.4642134 C14.8181861,21.7257947 10.5604291,19.7660245 3.33054827,18.1481794 C3.3034633,17.8746394 3.27457267,17.6262939 3.23665371,17.4211389 M37.0820301,22.1361047 C38.0805626,22.2152873 39.5612075,22.5932044 41.1285243,22.9909172 C41.4968799,23.0862963 41.8670411,23.1780761 42.2353967,23.2716556 C41.092411,23.6441739 39.9259517,24.0040949 38.7540755,24.1768571 C38.3062706,23.8817218 37.4774706,23.4138244 36.4789381,23.2770544 C35.3197015,23.1204888 34.8105041,22.7983594 34.8068927,22.6507918 C34.8737023,22.517621 35.4858226,22.0047335 37.0820301,22.1361047 M70.0083232,15.970657 C70.2448652,15.7295099 70.5247432,15.4343746 70.8226779,15.1194437 C72.2238736,15.7798988 73.9356436,16.8092731 75.279058,17.662286 C73.018366,17.3995436 71.0844993,16.5609275 70.0083232,15.970657 M73.2332401,12.5334109 C75.4162885,13.9497003 78.2692385,15.8482838 80.129073,17.1637953 C79.5025074,17.2573748 78.8759418,17.3527539 78.2385422,17.4481329 C77.3284873,16.8290687 74.4863713,14.9376836 72.1137281,13.7463449 C72.469444,13.363029 72.8468279,12.9563182 73.2332401,12.5334109 M75.6672759,9.87899314 C78.3107688,11.5886182 82.5450522,14.7667211 84.655874,16.4907429 C83.9986121,16.5879216 83.3341276,16.6868999 82.6570034,16.7876778 C81.0607959,15.5279541 76.7849822,12.697175 74.4701203,11.1891058 C74.8655608,10.7572005 75.2646127,10.3198964 75.6672759,9.87899314 M77.9496359,7.36494458 C82.6461694,10.2605095 86.7612789,13.9838928 88.7457042,15.893274 C88.1715029,15.9760558 87.5846619,16.0606373 86.9851813,16.1488179 C85.3673059,14.6101554 79.9232272,10.5322499 76.8933221,8.53108879 C77.2508437,8.13697524 77.6029483,7.7482605 77.9496359,7.36494458 M80.2265789,4.8472968 C86.3875063,9.03857748 91.1201531,13.2856459 93.0919388,15.2760094 C92.4256486,15.3677892 91.7268564,15.4667675 90.9919509,15.5711446 C89.7261801,14.2862265 84.9646427,9.62704841 79.1792934,6.00624259 C79.5494547,5.5977322 79.8943366,5.21621588 80.2265789,4.8472968 M82.395182,2.43762533 C86.6005748,4.78251101 91.0966795,9.03677788 94.7423162,12.4866212 C95.5819502,13.2820467 96.3872766,14.0414801 97.1474614,14.739727 C96.5931224,14.808112 95.9503058,14.8908938 95.2659589,14.9808741 C93.7762857,13.2280586 88.5524981,8.35472748 81.4417911,3.49579323 C81.8282033,3.06928678 82.153223,2.70576652 82.395182,2.43762533 M162.151385,30.2649217 C161.169104,27.8858435 156.88065,23.3148461 139.190555,19.4205003 C120.910007,15.3965829 105.980772,14.0594762 99.5742746,14.4967803 C98.5197665,13.577182 97.2901089,12.4164366 95.9864191,11.1801078 C92.078961,7.48551813 87.2163064,2.88572705 82.6118618,0.508448477 C82.2453119,0.319489923 81.7993127,0.402271766 81.523046,0.708204663 C78.1608986,4.45858206 69.1741062,14.4193973 67.9625052,15.4559699 C67.7512425,15.6359304 67.6338743,15.902272 67.646514,16.1776116 C67.6591536,16.4547508 67.7981898,16.7084952 68.0238978,16.8704596 C68.1069584,16.9316462 69.336616,17.7792603 71.2181184,18.5099 C69.3691179,18.7906385 67.5399797,19.0695773 65.7704285,19.3377185 C56.2961066,20.7792023 48.1128348,22.0263288 46.9229019,22.1145094 C46.6917768,22.1307059 46.4588461,22.1720968 46.2259154,22.2062893 C44.9980635,22.1199082 43.2610142,21.6790049 41.5763291,21.2488993 C39.9313687,20.8295912 38.3784972,20.4354777 37.2282889,20.3418982 C35.2203899,20.1889318 34.1694932,20.798998 33.723494,21.1841135 C33.3027742,21.5458341 33.0535925,21.9939359 33.0228962,22.4456368 C32.9867829,22.987318 33.152904,23.7971403 34.1351855,24.3946093 C30.9554103,24.4647939 27.1292071,24.4342006 25.5492506,23.8043388 C25.0093569,23.5883861 23.9277638,22.8991373 22.6764383,22.1019122 C18.5577174,19.4762881 11.6618845,15.081652 4.59812478,14.5183755 C3.57431298,14.4409925 2.63717308,14.7631219 2.04852643,15.414579 C1.1077752,16.4529512 1.50321574,17.7774607 1.58627631,19.0191883 C1.68197653,20.4642714 1.66211422,21.9165528 1.79753906,23.3580367 C2.06297175,26.1672205 3.84516266,28.6902671 3.59598096,31.5750343 C3.38110687,34.0404936 2.36271207,36.5365461 1.61336128,38.8760329 C1.32264928,39.7884328 -1.21430941,45.518376 0.724974318,45.6479476 C9.95914284,46.3048035 15.1395944,44.0301025 20.6143694,41.6258298 C21.3492748,41.3037005 22.0895973,40.9797715 22.8443651,40.6594418 C26.9432236,38.9264219 32.307853,38.8976282 36.4644928,39.7632383 L35.3395638,40.0439768 C34.9459289,40.1411555 34.6660509,40.4884793 34.6552169,40.8915909 C34.6443829,41.2299166 34.4854844,47.9784364 36.264064,52.9075553 C36.2676754,52.9219521 36.264064,52.936349 36.269481,52.9489462 C36.2730924,52.9597438 36.2839263,52.963343 36.2875377,52.9741407 C36.6288083,53.9081358 37.0332771,54.782744 37.5298349,55.5241813 C37.750126,55.8535091 38.1184815,56.0586641 38.6258733,56.1360471 C41.2079736,56.5175635 48.789959,53.834352 57.6954966,46.6665242 C58.7680613,46.5585479 63.0059561,46.193228 66.4601923,46.689919 L70.2809785,47.2531955 C72.7420993,47.6185154 75.0894632,47.9658392 76.8138729,48.1871906 C76.129526,50.28733 74.762638,54.7755455 74.9450101,56.7353157 C75.0750179,58.1192122 75.5517134,59.0802014 76.3624567,59.5912893 C76.7777596,59.8558312 77.2616777,59.9872024 77.8069884,59.9872024 C78.2963235,59.9872024 78.8344115,59.8810257 79.4194468,59.6668727 C80.5046512,59.2745587 83.0867515,56.5841489 85.4485608,53.9351299 C86.0281791,54.577589 86.680024,54.9627045 87.3553425,55.005895 C87.4004842,55.0094942 87.4438201,55.0094942 87.4889617,55.0094942 C88.0342724,55.0094942 88.7800119,54.7971408 89.4697757,53.8811417 C90.367191,52.6880034 91.5878202,50.6742451 92.1349366,49.7564464 C99.6862258,50.3449174 106.737346,49.4217199 113.580814,48.518318 C115.158965,48.3095638 116.717254,48.1044088 118.25568,47.9226487 C118.100393,48.732471 117.941494,49.7564464 117.921632,50.569868 C117.919826,50.5860645 117.918021,50.6004613 117.918021,50.6166578 C117.912604,50.9153922 117.925243,51.1889322 117.966774,51.4030853 C118.158174,52.3496776 119.014059,54.0467054 120.057733,54.6369759 C120.599433,54.9429088 121.049043,54.8871211 121.332532,54.7863432 C123.275427,54.098894 128.02252,47.9784364 129.237732,46.0456604 C130.019585,45.860301 131.90831,45.4265961 133.733837,45.0540779 C134.909324,44.8129307 135.93133,44.3612298 136.917223,43.9239257 C138.015067,43.4362327 139.051519,42.9773334 140.149363,42.8981507 C142.399221,42.7397855 151.02488,41.1525336 155.109294,39.586877 C158.162672,38.415334 161.521208,36.6445224 162.135134,35.3290109 C162.622664,34.2906387 162.256114,33.3746396 161.625937,32.8239604 C161.916649,32.5684165 162.142357,32.2750808 162.27417,31.9223582 C162.478211,31.3842762 162.425846,30.8066029 162.151385,30.2649217" id="Fill-4" fill="#00F8B6"></path>
                    <path d="M150.513351,31.863141 C149.110379,31.863141 147.96944,30.7802617 147.96944,29.4480863 C147.96944,28.115911 149.110379,27.0330316 150.513351,27.0330316 C151.916323,27.0330316 153.055442,28.115911 153.055442,29.4480863 C153.055442,30.7802617 151.916323,31.863141 150.513351,31.863141 M150.513351,25.0854069 C148.107736,25.0854069 146.149762,27.0427697 146.149762,29.4480863 C146.149762,31.8534029 148.107736,33.8107658 150.513351,33.8107658 C152.918966,33.8107658 154.875121,31.8534029 154.875121,29.4480863 C154.875121,27.0427697 152.918966,25.0854069 150.513351,25.0854069" id="Fill-7" fill="#00F8B6"></path>
                    <path d="M149.967106,27.2667466 C150.871742,27.2667466 151.603111,27.9995309 151.603111,28.9036628 C151.603111,29.8077947 150.871742,30.5387562 149.967106,30.5387562 C149.06247,30.5387562 148.331101,29.8077947 148.331101,28.9036628 C148.331101,27.9995309 149.06247,27.2667466 149.967106,27.2667466" id="Fill-9" fill="#00F8B6"></path>
                    <path d="M143.847342,35.8484085 C143.980744,35.9469913 144.132761,35.9921055 144.283227,35.9921055 C144.529866,35.9921055 144.774954,35.8651175 144.923868,35.6278503 C145.165854,35.2452153 145.074333,34.7255668 144.719111,34.466578 C141.765645,32.3027685 142.024694,30.1890858 142.666887,28.4062404 C142.823557,27.9768203 142.625004,27.4922607 142.224797,27.3251711 C141.832346,27.1547398 141.377848,27.3702853 141.222729,27.8013763 C140.788396,28.9994083 139.474538,32.645302 143.847342,35.8484085" id="Fill-11" fill="#00F8B6"></path>
                    <path d="M145.042959,37.2031702 C142.95834,37.6731461 141.430709,37.4226142 140.492721,36.4515746 C138.939689,34.8404899 139.093903,31.3330434 139.556547,29.500686 C139.679919,29.0105944 139.386004,28.513188 138.899774,28.3888364 C138.408102,28.2553414 137.921872,28.5607342 137.798501,29.0489971 C137.295942,31.0313079 136.94397,35.3964147 139.191875,37.7261784 C140.178849,38.7502504 141.510537,39.2641151 143.165169,39.2641151 C143.867299,39.2641151 144.625673,39.1726801 145.440289,38.9879814 C145.928332,38.8764307 146.236762,38.3863391 146.127904,37.8944188 C146.017233,37.4024985 145.52556,37.0916195 145.042959,37.2031702" id="Fill-13" fill="#00F8B6"></path>
                </g>
            </g>
        </g>
    </g>
</svg>